# xmcd
#
# Track frame offsets:
#	150
#	13271
#	24785
#	35133
#	47255
#	57437
#	74304
#	86978
#	99277
#	109923
#	127337
#	139397
#	149595
#	160904
#	173353
#	186034
#
# Disc length: 2628 seconds
#
# Revision: 1
# Processed by: cddbd v1.5.2PL0 Copyright (c) Steve Scherf et al.
# Submitted via: EasyCDDAExtractor 8.2.3.1
#
DISCID=e30a4210
DTITLE=Eddy Arnold - Looking Back
DYEAR=2002
DGENRE=Country
TTITLE0=Half As Much
TTITLE1=Baby  That's Living
TTITLE2=Here Comes Heaven
TTITLE3=Nothing But Time
TTITLE4=Gentle On My Mind
TTITLE5=Little Green Apples
TTITLE6=Faded Love
TTITLE7=I Wish I Didn't Love You So
TTITLE8=Lay Some Happiness On Me
TTITLE9=Honey
TTITLE10=The Other Side Of Lonely
TTITLE11=New World In The Morning
TTITLE12=Here Comes The Rain, Baby
TTITLE13=It's Such A Pretty World Today
TTITLE14=Lonely Street
TTITLE15=What A Wonderful World
EXTD=
EXTT0=
EXTT1=
EXTT2=
EXTT3=
EXTT4=
EXTT5=
EXTT6=
EXTT7=
EXTT8=
EXTT9=
EXTT10=
EXTT11=
EXTT12=
EXTT13=
EXTT14=
EXTT15=
PLAYORDER=
